<mxfile host="app.diagrams.net" modified="2021-12-17T07:44:19.802Z" agent="5.0 (Macintosh; Intel Mac OS X 10_15_7) AppleWebKit/537.36 (KHTML, like Gecko) Chrome/96.0.4664.110 Safari/537.36" etag="214RkUyfgJJY_FkkFic3" version="15.9.4" type="github">
  <diagram id="xOJSTgQdK1wIXpkHVH-o" name="Page-1">
    <mxGraphModel dx="946" dy="614" grid="1" gridSize="10" guides="1" tooltips="1" connect="1" arrows="1" fold="1" page="1" pageScale="1" pageWidth="827" pageHeight="1169" math="0" shadow="0">
      <root>
        <mxCell id="0" />
        <mxCell id="1" parent="0" />
        <mxCell id="1Dj27EMK6ha2XYkX-1SR-3" style="edgeStyle=orthogonalEdgeStyle;rounded=0;orthogonalLoop=1;jettySize=auto;html=1;exitX=1;exitY=0.5;exitDx=0;exitDy=0;entryX=0;entryY=0.5;entryDx=0;entryDy=0;endArrow=classic;endFill=1;" edge="1" parent="1" source="1Dj27EMK6ha2XYkX-1SR-1" target="1Dj27EMK6ha2XYkX-1SR-2">
          <mxGeometry relative="1" as="geometry" />
        </mxCell>
        <mxCell id="1Dj27EMK6ha2XYkX-1SR-1" value="" style="ellipse;whiteSpace=wrap;html=1;fillColor=#000000;" vertex="1" parent="1">
          <mxGeometry x="130" y="90" width="20" height="20" as="geometry" />
        </mxCell>
        <mxCell id="1Dj27EMK6ha2XYkX-1SR-6" style="edgeStyle=orthogonalEdgeStyle;rounded=0;orthogonalLoop=1;jettySize=auto;html=1;exitX=1;exitY=0.5;exitDx=0;exitDy=0;entryX=0;entryY=0.5;entryDx=0;entryDy=0;endArrow=classic;endFill=1;" edge="1" parent="1" source="1Dj27EMK6ha2XYkX-1SR-2" target="1Dj27EMK6ha2XYkX-1SR-4">
          <mxGeometry relative="1" as="geometry" />
        </mxCell>
        <mxCell id="1Dj27EMK6ha2XYkX-1SR-2" value="Treffen" style="rounded=1;whiteSpace=wrap;html=1;fillColor=#E6E6E6;gradientColor=none;strokeWidth=1;perimeterSpacing=0;glass=0;" vertex="1" parent="1">
          <mxGeometry x="190" y="85" width="120" height="30" as="geometry" />
        </mxCell>
        <mxCell id="1Dj27EMK6ha2XYkX-1SR-9" style="edgeStyle=orthogonalEdgeStyle;rounded=0;orthogonalLoop=1;jettySize=auto;html=1;exitX=1;exitY=0.5;exitDx=0;exitDy=0;entryX=0;entryY=0.5;entryDx=0;entryDy=0;endArrow=classic;endFill=1;" edge="1" parent="1" source="1Dj27EMK6ha2XYkX-1SR-4" target="1Dj27EMK6ha2XYkX-1SR-7">
          <mxGeometry relative="1" as="geometry" />
        </mxCell>
        <mxCell id="1Dj27EMK6ha2XYkX-1SR-4" value="Rezept suchen" style="rounded=1;whiteSpace=wrap;html=1;fillColor=#E6E6E6;gradientColor=none;strokeWidth=1;perimeterSpacing=0;glass=0;" vertex="1" parent="1">
          <mxGeometry x="360" y="85" width="120" height="30" as="geometry" />
        </mxCell>
        <mxCell id="1Dj27EMK6ha2XYkX-1SR-14" style="edgeStyle=orthogonalEdgeStyle;rounded=0;orthogonalLoop=1;jettySize=auto;html=1;exitX=1;exitY=0.5;exitDx=0;exitDy=0;endArrow=classic;endFill=1;startSize=6;endSize=6;strokeColor=default;strokeWidth=1;" edge="1" parent="1" source="1Dj27EMK6ha2XYkX-1SR-7">
          <mxGeometry relative="1" as="geometry">
            <mxPoint x="710" y="100" as="targetPoint" />
          </mxGeometry>
        </mxCell>
        <mxCell id="1Dj27EMK6ha2XYkX-1SR-7" value="Einkaufen" style="rounded=1;whiteSpace=wrap;html=1;fillColor=#E6E6E6;gradientColor=none;strokeWidth=1;perimeterSpacing=0;glass=0;" vertex="1" parent="1">
          <mxGeometry x="530" y="85" width="120" height="30" as="geometry" />
        </mxCell>
        <mxCell id="1Dj27EMK6ha2XYkX-1SR-30" style="edgeStyle=orthogonalEdgeStyle;rounded=0;orthogonalLoop=1;jettySize=auto;html=1;exitX=1;exitY=0.5;exitDx=0;exitDy=0;entryX=0;entryY=0.25;entryDx=0;entryDy=0;endArrow=classic;endFill=1;startSize=6;endSize=6;strokeColor=default;strokeWidth=1;" edge="1" parent="1" source="1Dj27EMK6ha2XYkX-1SR-15" target="1Dj27EMK6ha2XYkX-1SR-29">
          <mxGeometry relative="1" as="geometry" />
        </mxCell>
        <mxCell id="1Dj27EMK6ha2XYkX-1SR-15" value="Person 1 kocht" style="rounded=1;whiteSpace=wrap;html=1;fillColor=#E6E6E6;gradientColor=none;strokeWidth=1;perimeterSpacing=0;glass=0;" vertex="1" parent="1">
          <mxGeometry x="880" y="20" width="120" height="30" as="geometry" />
        </mxCell>
        <mxCell id="1Dj27EMK6ha2XYkX-1SR-28" style="edgeStyle=orthogonalEdgeStyle;rounded=0;orthogonalLoop=1;jettySize=auto;html=1;exitX=1;exitY=0.5;exitDx=0;exitDy=0;entryX=0;entryY=0.5;entryDx=0;entryDy=0;endArrow=classic;endFill=1;startSize=6;endSize=6;strokeColor=default;strokeWidth=1;" edge="1" parent="1" source="1Dj27EMK6ha2XYkX-1SR-16" target="1Dj27EMK6ha2XYkX-1SR-17">
          <mxGeometry relative="1" as="geometry" />
        </mxCell>
        <mxCell id="1Dj27EMK6ha2XYkX-1SR-16" value="Tisch decken" style="rounded=1;whiteSpace=wrap;html=1;fillColor=#E6E6E6;gradientColor=none;strokeWidth=1;perimeterSpacing=0;glass=0;" vertex="1" parent="1">
          <mxGeometry x="790" y="130" width="120" height="30" as="geometry" />
        </mxCell>
        <mxCell id="1Dj27EMK6ha2XYkX-1SR-31" style="edgeStyle=orthogonalEdgeStyle;rounded=0;orthogonalLoop=1;jettySize=auto;html=1;exitX=1;exitY=0.5;exitDx=0;exitDy=0;entryX=0;entryY=0.75;entryDx=0;entryDy=0;endArrow=classic;endFill=1;startSize=6;endSize=6;strokeColor=default;strokeWidth=1;" edge="1" parent="1" source="1Dj27EMK6ha2XYkX-1SR-17" target="1Dj27EMK6ha2XYkX-1SR-29">
          <mxGeometry relative="1" as="geometry" />
        </mxCell>
        <mxCell id="1Dj27EMK6ha2XYkX-1SR-17" value="Wein kÃ¼hlen" style="rounded=1;whiteSpace=wrap;html=1;fillColor=#E6E6E6;gradientColor=none;strokeWidth=1;perimeterSpacing=0;glass=0;" vertex="1" parent="1">
          <mxGeometry x="970" y="130" width="120" height="30" as="geometry" />
        </mxCell>
        <mxCell id="1Dj27EMK6ha2XYkX-1SR-26" style="edgeStyle=orthogonalEdgeStyle;rounded=0;orthogonalLoop=1;jettySize=auto;html=1;exitX=1;exitY=0.25;exitDx=0;exitDy=0;entryX=0;entryY=0.5;entryDx=0;entryDy=0;endArrow=classic;endFill=1;startSize=6;endSize=6;strokeColor=default;strokeWidth=1;" edge="1" parent="1" source="1Dj27EMK6ha2XYkX-1SR-18" target="1Dj27EMK6ha2XYkX-1SR-15">
          <mxGeometry relative="1" as="geometry" />
        </mxCell>
        <mxCell id="1Dj27EMK6ha2XYkX-1SR-27" style="edgeStyle=orthogonalEdgeStyle;rounded=0;orthogonalLoop=1;jettySize=auto;html=1;exitX=1;exitY=0.75;exitDx=0;exitDy=0;entryX=0;entryY=0.5;entryDx=0;entryDy=0;endArrow=classic;endFill=1;startSize=6;endSize=6;strokeColor=default;strokeWidth=1;" edge="1" parent="1" source="1Dj27EMK6ha2XYkX-1SR-18" target="1Dj27EMK6ha2XYkX-1SR-16">
          <mxGeometry relative="1" as="geometry" />
        </mxCell>
        <mxCell id="1Dj27EMK6ha2XYkX-1SR-18" value="" style="rounded=0;whiteSpace=wrap;html=1;fillColor=#000000;" vertex="1" parent="1">
          <mxGeometry x="710" y="75" width="10" height="50" as="geometry" />
        </mxCell>
        <mxCell id="1Dj27EMK6ha2XYkX-1SR-33" style="edgeStyle=orthogonalEdgeStyle;rounded=0;orthogonalLoop=1;jettySize=auto;html=1;exitX=1;exitY=0.5;exitDx=0;exitDy=0;endArrow=classic;endFill=1;startSize=6;endSize=6;strokeColor=default;strokeWidth=1;" edge="1" parent="1" source="1Dj27EMK6ha2XYkX-1SR-29" target="1Dj27EMK6ha2XYkX-1SR-32">
          <mxGeometry relative="1" as="geometry" />
        </mxCell>
        <mxCell id="1Dj27EMK6ha2XYkX-1SR-29" value="" style="rounded=0;whiteSpace=wrap;html=1;fillColor=#000000;" vertex="1" parent="1">
          <mxGeometry x="1160" y="75" width="10" height="50" as="geometry" />
        </mxCell>
        <mxCell id="1Dj27EMK6ha2XYkX-1SR-40" style="edgeStyle=orthogonalEdgeStyle;rounded=0;orthogonalLoop=1;jettySize=auto;html=1;exitX=1;exitY=0.5;exitDx=0;exitDy=0;entryX=0;entryY=0.5;entryDx=0;entryDy=0;endArrow=classic;endFill=1;startSize=6;endSize=6;strokeColor=default;strokeWidth=1;" edge="1" parent="1" source="1Dj27EMK6ha2XYkX-1SR-32" target="1Dj27EMK6ha2XYkX-1SR-38">
          <mxGeometry relative="1" as="geometry" />
        </mxCell>
        <mxCell id="1Dj27EMK6ha2XYkX-1SR-32" value="Essen" style="rounded=1;whiteSpace=wrap;html=1;fillColor=#E6E6E6;gradientColor=none;strokeWidth=1;perimeterSpacing=0;glass=0;" vertex="1" parent="1">
          <mxGeometry x="1250" y="85" width="120" height="30" as="geometry" />
        </mxCell>
        <mxCell id="1Dj27EMK6ha2XYkX-1SR-38" value="" style="ellipse;whiteSpace=wrap;html=1;rounded=1;shadow=0;glass=0;sketch=0;strokeWidth=1;fillColor=#000000;" vertex="1" parent="1">
          <mxGeometry x="1430" y="85" width="30" height="30" as="geometry" />
        </mxCell>
        <mxCell id="1Dj27EMK6ha2XYkX-1SR-39" value="" style="ellipse;whiteSpace=wrap;html=1;fillColor=#000000;" vertex="1" parent="1">
          <mxGeometry x="1435" y="90" width="20" height="20" as="geometry" />
        </mxCell>
      </root>
    </mxGraphModel>
  </diagram>
</mxfile>
